<?xml version="1.0" standalone="no"?>
<!DOCTYPE svg PUBLIC "-//W3C//DTD SVG 20010904//EN"
 "http://www.w3.org/TR/2001/REC-SVG-20010904/DTD/svg10.dtd">
<svg version="1.0" xmlns="http://www.w3.org/2000/svg"
 width="47.000000pt" height="47.000000pt" viewBox="0 0 47.000000 47.000000"
 preserveAspectRatio="xMidYMid meet">

<g transform="translate(0.000000,47.000000) scale(0.100000,-0.100000)"
fill="#000000" stroke="none">
<path d="M179 426 c-57 -20 -96 -53 -118 -99 -67 -138 30 -293 181 -291 177 2
261 217 133 340 -27 27 -58 45 -88 52 -56 15 -63 14 -108 -2z m81 -97 c0 -6
14 -27 30 -46 57 -64 28 -153 -51 -153 -50 0 -79 27 -79 75 0 31 3 35 25 35
19 0 25 -5 25 -22 0 -32 15 -52 34 -45 27 11 20 63 -14 99 -16 17 -30 39 -30
49 0 14 7 19 30 19 17 0 30 -5 30 -11z"/>
</g>
</svg>
