<svg width="104" height="68" viewBox="0 0 104 68" fill="none" xmlns="http://www.w3.org/2000/svg">
<path d="M9.14098 54.6183C9.72338 54.9656 10.8139 55.2063 11.7403 55.2063C13.2725 55.2063 14.4373 54.4762 14.922 52.1756L15.1644 51.0589H15.1253C14.3201 52.2388 13.2921 52.807 12.0452 52.807C10.0908 52.807 8.98463 51.1812 8.96509 49.3107C8.96509 46.0157 11.3221 42.7246 15.3872 42.7246C16.6575 42.7246 17.8848 43.0087 18.7917 43.4152L17.3024 51.5877C16.9389 53.5173 16.3761 55.0642 15.2894 55.9994C14.2614 56.8518 12.8738 57.0965 11.6465 57.0965C10.3996 57.0965 9.23088 56.8321 8.58594 56.4256L9.14098 54.6183ZM16.2275 44.82C15.9852 44.6977 15.481 44.5754 14.9376 44.5754C12.8856 44.5754 11.4354 46.8128 11.4354 48.9477C11.4159 49.9855 11.838 50.9602 13.0067 50.9602C14.1754 50.9602 15.3442 49.5593 15.6842 47.7678L16.2275 44.82Z" fill="#F2F2F2"/>
<path d="M26.0743 52.8504C26.0939 52.2624 26.176 51.4693 26.2541 50.613H26.1955C25.23 52.444 23.9401 53.0714 22.6933 53.0714C20.9421 53.0714 19.793 51.6903 19.793 49.6975C19.793 46.3235 22.1304 42.7246 26.6997 42.7246C27.7668 42.7246 28.916 42.9298 29.6586 43.1705L28.6502 48.3321C28.3688 49.8158 28.2085 51.6666 28.2476 52.8465H26.0743V52.8504ZM27.0398 44.6582C26.7974 44.599 26.4965 44.5556 26.0743 44.5556C23.9011 44.5556 22.2281 47.0141 22.2281 49.2713C22.2281 50.3091 22.6112 51.1615 23.6392 51.1615C24.7258 51.1615 26.0548 49.7803 26.5199 47.2587L27.0398 44.6582Z" fill="#F2F2F2"/>
<path d="M30.5625 52.8504L31.8094 46.0196C32.0322 44.8397 32.1924 43.8019 32.2941 42.9495H34.3266L34.1273 44.678H34.1468C35.0732 43.356 36.281 42.7246 37.5513 42.7246C39.0836 42.7246 39.7871 43.6993 39.8653 44.7569C40.7331 43.3955 41.9799 42.7443 43.3285 42.7246C44.677 42.7246 45.7245 43.6007 45.7245 45.3685C45.7245 45.7947 45.6424 46.5287 45.5643 47.0575L44.4776 52.8504H42.2027L43.2307 47.3219C43.2894 46.9154 43.3715 46.4695 43.3715 46.0631C43.3715 45.2304 43.0275 44.6622 42.1637 44.6622C41.0966 44.6622 39.9083 46.0236 39.5253 48.119L38.638 52.8544H36.3826L37.4302 47.2429C37.5122 46.8365 37.5513 46.4498 37.5513 46.0828C37.5513 45.3291 37.3285 44.6582 36.3826 44.6582C35.296 44.6582 34.0452 46.142 33.6856 48.1545L32.8374 52.8504H30.5625Z" fill="#F2F2F2"/>
<path d="M53.5392 52.8504C53.5587 52.2624 53.6408 51.4693 53.719 50.613H53.6603C52.6949 52.444 51.405 53.0714 50.1581 53.0714C48.407 53.0714 47.2578 51.6903 47.2578 49.6975C47.2578 46.3235 49.5952 42.7246 54.1646 42.7246C55.2317 42.7246 56.3808 42.9298 57.1235 43.1705L56.115 48.3321C55.8336 49.8158 55.6733 51.6666 55.7124 52.8465H53.5392V52.8504ZM54.5046 44.6582C54.2623 44.599 53.9613 44.5556 53.5392 44.5556C51.3659 44.5556 49.693 47.0141 49.693 49.2713C49.693 50.3091 50.076 51.1615 51.104 51.1615C52.1906 51.1615 53.5196 49.7803 53.9848 47.2587L54.5046 44.6582Z" fill="#F2F2F2"/>
<path d="M58.0234 52.8503L59.1726 46.7535C59.4345 45.3527 59.5557 43.8452 59.6768 42.9534H61.7094C61.6508 43.6242 61.5882 44.3148 61.4866 45.0488H61.5452C62.2097 43.7071 63.2768 42.7324 64.6253 42.7324C64.7856 42.7324 64.9693 42.7522 65.1295 42.7719L64.6683 45.0883C64.5471 45.0685 64.3869 45.0488 64.2266 45.0488C62.5537 45.0488 61.4866 46.7575 61.1074 48.8687L60.3609 52.8543H58.0234V52.8503Z" fill="#F2F2F2"/>
<path d="M69.4224 42.9499L67.6087 52.6456C67.2882 54.3109 66.9051 55.3921 66.2797 56.0827C65.6778 56.7733 64.7475 57.1008 63.8016 57.1008C63.3794 57.1008 62.9378 57.0614 62.5312 56.9588L62.8127 55.1514C62.9925 55.1909 63.2153 55.2106 63.5163 55.2106C64.2628 55.2106 64.8648 54.7844 65.2087 52.8942L67.081 42.9539H69.4224V42.9499ZM67.3468 40.2666C67.3468 39.4142 67.9918 38.8223 68.7579 38.8223C69.5044 38.8223 70.0048 39.351 70.0048 40.1048C70.0048 40.9769 69.3598 41.5293 68.5546 41.5293C67.8511 41.5254 67.3468 41.0005 67.3468 40.2666Z" fill="#F2F2F2"/>
<path d="M80.0492 46.8325C80.0492 50.1868 77.7117 53.0714 74.3697 53.0714C71.8916 53.0714 70.3633 51.343 70.3633 48.9871C70.3633 45.6329 72.6773 42.7246 76.0231 42.7246C78.6616 42.7246 80.0492 44.6385 80.0492 46.8325ZM72.7828 48.928C72.7828 50.2894 73.5059 51.2443 74.6942 51.2443C76.4453 51.2443 77.614 48.8056 77.614 46.8325C77.614 45.8144 77.1723 44.5556 75.7417 44.5556C73.8694 44.5556 72.7828 47.0772 72.7828 48.928Z" fill="#F2F2F2"/>
<path d="M86.0697 38.4161L84.8423 44.4142H84.8814C85.6671 43.3369 86.8358 42.7252 88.1022 42.7252C90.1973 42.7252 91.0611 44.4537 91.0611 46.2215C91.0611 49.3508 88.927 53.072 84.7368 53.072C82.6847 53.072 81.4534 52.1999 81.4769 50.4084C81.4769 49.8401 81.559 49.2482 81.6567 48.6997L83.7088 38.4121H86.0697V38.4161ZM83.998 48.826C83.9355 49.1733 83.8769 49.5363 83.8964 50.0059C83.8964 50.8188 84.3576 51.2647 85.2058 51.2647C87.2579 51.2647 88.6104 48.6011 88.6104 46.6714C88.6104 45.5744 88.1491 44.6589 87.0586 44.6589C85.8508 44.6589 84.6 45.9177 84.1974 47.9105L83.998 48.826Z" fill="#F2F2F2"/>
<path d="M98.4689 52.8504C98.4884 52.2624 98.5705 51.4693 98.6487 50.613H98.59C97.6246 52.444 96.3347 53.0714 95.0878 53.0714C93.3367 53.0714 92.1875 51.6903 92.1875 49.6975C92.1875 46.3235 94.5249 42.7246 99.0943 42.7246C100.161 42.7246 101.311 42.9298 102.053 43.1705L101.045 48.3321C100.763 49.8158 100.603 51.6666 100.642 52.8465H98.4689V52.8504ZM99.4382 44.6582C99.1959 44.599 98.8949 44.5556 98.4728 44.5556C96.2995 44.5556 94.6266 47.0141 94.6266 49.2713C94.6266 50.3091 95.0096 51.1615 96.0376 51.1615C97.1242 51.1615 98.4532 49.7803 98.9184 47.2587L99.4382 44.6582Z" fill="#F2F2F2"/>
<path d="M71.1066 57.9299H69.2812V56.9395H74.1203V57.9299H72.2753V63.4111H71.1066V57.9299Z" fill="#F2F2F2"/>
<path d="M81.0038 60.1073C81.0038 62.2777 79.7022 63.5129 77.9316 63.5129C76.1257 63.5129 74.9844 62.1199 74.9844 60.2218C74.9844 58.2369 76.2195 56.832 78.0254 56.832C79.9016 56.832 81.0038 58.2645 81.0038 60.1073ZM76.2195 60.202C76.2195 61.5161 76.8762 62.5618 77.998 62.5618C79.1276 62.5618 79.7648 61.5082 79.7648 60.1547C79.7648 58.9353 79.1667 57.783 77.998 57.783C76.8371 57.783 76.2195 58.8682 76.2195 60.202Z" fill="#F2F2F2"/>
<path d="M83.8836 56.9375V60.71C83.8836 61.9767 84.4073 62.5608 85.1969 62.5608C86.0451 62.5608 86.5454 61.9767 86.5454 60.71V56.9375H87.7141V60.6311C87.7141 62.6278 86.6979 63.5118 85.1578 63.5118C83.6764 63.5118 82.7148 62.6752 82.7148 60.6429V56.9375H83.8836Z" fill="#F2F2F2"/>
<path d="M89.7656 57.0248C90.2034 56.9498 90.8601 56.8906 91.5324 56.8906C92.4548 56.8906 93.0802 57.0445 93.5102 57.4076C93.862 57.7035 94.0613 58.1573 94.0613 58.7019C94.0613 59.5385 93.5024 60.1028 92.9004 60.3238V60.3514C93.3578 60.525 93.6314 60.9749 93.7955 61.5984C93.9949 62.4034 94.1669 63.1532 94.2998 63.4018H93.092C92.9982 63.2084 92.8457 62.6836 92.6659 61.8746C92.4861 61.0301 92.1812 60.7618 91.5167 60.7421H90.9265V63.4018H89.7656V57.0248ZM90.9265 59.8857H91.6223C92.4118 59.8857 92.9043 59.4635 92.9043 58.8203C92.9043 58.11 92.4118 57.7825 91.6496 57.7825C91.2783 57.7825 91.0399 57.8101 90.9265 57.8416V59.8857Z" fill="#F2F2F2"/>
<path d="M95.8634 62.1238C96.2426 62.3448 96.8133 62.5381 97.4113 62.5381C98.1618 62.5381 98.58 62.183 98.58 61.6542C98.58 61.1649 98.2556 60.8768 97.4387 60.5808C96.3833 60.1981 95.7071 59.6298 95.7071 58.6985C95.7071 57.641 96.5827 56.8359 97.9703 56.8359C98.666 56.8359 99.1781 56.9898 99.5103 57.1635L99.225 58.1145C98.9983 57.9882 98.5488 57.8067 97.9507 57.8067C97.2081 57.8067 96.8875 58.2092 96.8875 58.5841C96.8875 59.0813 97.2589 59.3141 98.1149 59.6495C99.2289 60.0718 99.7683 60.6361 99.7683 61.5674C99.7683 62.6052 98.9904 63.5049 97.3331 63.5049C96.6569 63.5049 95.9533 63.3116 95.6016 63.1024L95.8634 62.1238Z" fill="#F2F2F2"/>
<path d="M58.14 33.4984C60.9309 32.2238 63.452 30.5033 65.68 28.3329C67.5836 26.4822 68.8969 24.3039 68.85 21.4942C68.8461 21.3009 69.0689 21.0365 69.2565 20.9142C70.6011 20.0381 71.547 18.8543 72.0825 17.335C72.7079 15.5632 71.9614 14.036 70.1868 13.4559C69.9093 13.3652 69.6317 13.2823 69.3073 13.1797C69.5575 12.7693 69.7803 12.4063 70.0148 12.0235C70.2181 12.0866 70.4213 12.2247 70.5659 12.1774C70.8943 12.0708 71.3516 11.9406 71.461 11.692C71.5744 11.4395 71.4415 10.8554 71.2265 10.7094C69.5575 9.5966 67.8533 8.53114 66.1256 7.52093C65.9106 7.39465 65.336 7.55644 65.168 7.77348C64.9999 7.99447 65.082 8.45617 65.1484 8.79553C65.1836 8.96916 65.422 9.10333 65.5706 9.26118C65.3126 9.68342 65.0702 10.0741 64.8084 10.5042C64.6442 10.303 64.5074 10.1372 64.3745 9.97149C62.9752 8.24307 61.1615 8.15231 59.6566 9.77023C58.6091 10.8988 58.0267 12.2524 57.8469 13.7992C57.8195 14.0518 57.5967 14.3833 57.3739 14.4977C55.486 15.4527 54.2508 17.0114 53.4456 18.9095C53.4456 18.9095 53.2033 19.5527 52.9453 21.1351" stroke="#F2F2F2" stroke-width="2.2671" stroke-miterlimit="10"/>
<path d="M59.3594 13.9129C60.0473 13.9919 60.7157 13.9366 61.2668 14.1655C62.2597 14.5798 62.7717 14.2128 63.1274 13.3289C63.1665 13.2303 63.2408 13.1434 63.2955 13.0487C63.9209 12.0267 63.8075 11.3282 62.8772 10.5193C62.2558 9.97863 61.5874 9.97469 60.9854 10.5429C60.0434 11.4427 59.5079 12.5436 59.3594 13.9129ZM68.5176 19.5993C69.6433 18.8693 70.4016 17.8788 70.769 16.5963C70.9801 15.8544 70.7026 15.2665 70.0146 14.9942C69.4205 14.7574 68.7013 14.3431 68.1658 15.0336C67.6381 15.7124 67.2433 16.4937 66.8329 17.1646C67.4153 18.0051 67.9352 18.7588 68.5176 19.5993Z" stroke="#F2F2F2" stroke-width="2.2671" stroke-miterlimit="10"/>
<path d="M59.3594 13.9144C59.5079 12.5451 60.0434 11.4401 60.9854 10.5483C61.5874 9.97611 62.2558 9.98401 62.8772 10.5246C63.8075 11.3336 63.9209 12.0321 63.2955 13.0541C63.2369 13.1488 63.1665 13.2356 63.1274 13.3343C62.7717 14.2182 62.2597 14.5852 61.2668 14.1709C60.7157 13.938 60.0512 13.9972 59.3594 13.9144Z" stroke="#F2F2F2" stroke-width="2.2671" stroke-miterlimit="10"/>
<path d="M68.5206 19.6008C67.9421 18.7603 67.4183 18.0105 66.8359 17.1661C67.2464 16.4952 67.6411 15.7099 68.1688 15.0351C68.7043 14.3485 69.4235 14.7589 70.0177 14.9957C70.7017 15.268 70.9831 15.8599 70.772 16.5978C70.4007 17.8803 69.6424 18.8708 68.5206 19.6008Z" stroke="#F2F2F2" stroke-width="2.2671" stroke-miterlimit="10"/>
<path d="M12.9609 38.5775C13.1759 38.2184 13.4808 38.0251 13.9069 38.0882C14.243 38.1395 14.372 37.958 14.5049 37.6857C16.2677 34.1263 18.0462 30.5747 19.8208 27.0193C19.9068 26.8496 19.985 26.6759 20.0866 26.5141C20.6025 25.6855 21.6149 25.6618 22.1699 26.4589C22.2325 26.5497 22.2872 26.6444 22.3849 26.7904C22.4944 26.5891 22.5843 26.4313 22.6664 26.2655C24.3119 22.9666 25.6644 13.9023 27.3256 10.6151C27.5132 10.2442 27.7868 9.8693 28.1191 9.63648C28.8265 9.14321 29.7646 9.39182 30.3001 10.1179C30.6949 10.6585 30.949 10.6388 31.25 10.039C32.2819 7.9791 33.302 5.91526 34.334 3.85538C34.8421 2.84122 35.7685 2.43476 36.6323 2.92803C37.0036 3.14112 37.3281 3.53574 37.5274 3.92641C38.7665 6.34145 39.9665 8.78017 41.1782 11.211C41.2524 11.3649 41.3384 11.5109 41.4518 11.724C41.5612 11.5267 41.6511 11.3846 41.7254 11.2347C42.5071 9.672 43.2733 8.10143 44.0667 6.5427C44.7 5.29177 46.0915 4.96819 47.0178 5.86791C47.2524 6.09284 47.4243 6.39669 47.569 6.69265C51.2471 14.0364 55.2067 27.1455 58.8731 34.4972C59.0294 34.8129 59.1779 34.9668 59.5727 34.9668C60.7141 34.9707 61.6756 35.9375 61.7577 37.0859C61.8398 38.2303 61.019 39.276 59.8581 39.4615C59.5297 39.5128 59.1936 39.5167 58.8613 39.5167C57.036 39.5206 55.2067 39.5206 53.3813 39.5167C53.1937 39.5167 52.9982 39.5088 52.8184 39.4575C52.4666 39.3589 52.2986 39.0984 52.3259 38.7393C52.3533 38.3763 52.5683 38.1553 52.924 38.104C53.1428 38.0724 53.3696 38.0882 53.5884 38.0882C55.4803 38.0882 57.3682 38.0921 59.26 38.0843C60.0535 38.0803 60.4835 37.587 60.2646 36.9635C60.12 36.5492 59.7643 36.3124 59.2874 36.4032C58.5994 36.5334 58.1734 36.2572 57.8529 35.6732C57.4425 34.9313 56.8053 34.588 56.0314 34.7813C55.2106 34.9865 54.7181 34.6551 54.2647 34.0237C53.5103 32.974 52.0758 32.7727 51.1259 33.6172C50.7702 33.9329 50.5044 34.4183 50.3481 34.88C50.0823 35.6534 49.8439 35.8862 49.0191 35.8665C48.9097 35.8626 48.7807 35.8428 48.6908 35.8902C48.0967 36.2217 47.4595 36.1743 46.8107 36.2059C46.1853 36.2335 45.7553 36.0836 45.3762 35.5863C44.7859 34.809 43.7189 34.8287 43.1912 35.5982C43.0778 35.7639 43.0036 35.9652 42.9371 36.1585C42.7729 36.6557 42.4368 36.9241 41.9169 36.9359C41.5143 36.9478 41.2251 37.0859 41.1977 37.52C41.1782 37.8712 41.487 38.0843 41.9873 38.0843C44.3716 38.0882 46.752 38.0843 49.1364 38.0843C49.281 38.0843 49.4217 38.0803 49.5663 38.0843C50.0667 38.1 50.3676 38.3526 50.3872 38.763C50.4067 39.1773 50.0823 39.4812 49.5742 39.5128C49.4804 39.5206 49.3826 39.5167 49.2888 39.5167C37.5509 39.5167 25.8129 39.5167 14.0749 39.5206C13.6215 39.5206 13.2306 39.4496 12.957 39.0511C12.9609 38.8972 12.9609 38.7393 12.9609 38.5775ZM31.1132 38.0921C31.3868 38.104 31.5353 38.0132 31.6604 37.7607C34.6975 31.6599 37.457 19.8018 40.4863 13.6971C40.5723 13.5195 40.5723 13.2235 40.4863 13.046C39.0909 10.2087 37.6759 7.38323 36.2571 4.55779C36.1828 4.41178 36.046 4.30129 35.9365 4.17501C35.8154 4.30918 35.6551 4.41967 35.5769 4.57357C34.5763 6.55849 33.5874 8.55129 32.5946 10.5401C32.489 10.7532 32.3757 10.9663 32.2428 11.1597C31.5314 12.1857 30.0656 12.2015 29.3269 11.1952C28.9516 10.6822 28.8774 10.6901 28.5842 11.2781C26.7627 14.9322 25.2305 24.3477 23.3934 27.994C23.2214 28.3333 23.2409 28.5859 23.4051 28.9134C24.6872 31.4508 25.9497 34 27.224 36.5413C27.478 37.0504 27.6383 37.7449 28.0565 37.9935C28.4748 38.25 30.6519 38.0724 31.1132 38.0921ZM40.5293 16.8343C37.9691 21.9682 35.6903 32.8753 33.1066 38.0566C35.4128 38.0566 37.6095 38.0566 39.8101 38.0566C39.7437 36.636 40.2127 35.8349 41.3033 35.5706C41.5769 35.5035 41.6824 35.3772 41.7958 35.1444C42.6635 33.3647 44.9931 33.0411 46.3416 34.4972C46.4315 34.5959 46.5488 34.7142 46.67 34.7379C47.4478 34.8879 48.1475 34.4854 48.8901 34.3867C48.9566 34.3788 49.0191 34.221 49.0582 34.1223C50.1996 31.3127 53.5064 30.8115 55.4334 33.1476C55.5272 33.2621 55.7383 33.3213 55.8985 33.3331C56.1252 33.3528 56.5591 33.2581 56.8522 33.2344C54.7142 28.9489 51.595 18.7284 49.6719 14.9519C49.5937 14.9835 49.5585 14.9835 49.539 15.0072C48.894 15.6662 48.5774 16.1358 47.9286 16.7908C47.1507 17.5722 46.3182 17.6116 45.4817 16.9053C45.0674 16.558 44.657 16.2068 44.2544 15.8438C44.0394 15.6504 43.883 15.6583 43.7071 15.8911C43.4765 16.195 43.242 16.4988 42.9801 16.7751C42.5462 17.2368 42.0146 17.4499 41.3892 17.2525C41.1 17.1578 40.8342 16.9842 40.5293 16.8343ZM49.1677 13.5708C49.1364 13.5313 47.2445 9.21424 46.2869 7.32798C46.1853 7.12673 45.9625 6.85445 45.7944 6.8505C45.6263 6.84655 45.3957 7.11489 45.2941 7.31615C44.012 9.85352 42.7456 12.4027 41.4752 14.948C41.1977 15.5083 41.2055 15.536 41.8583 15.899C42.1202 15.5794 42.3899 15.2479 42.6635 14.9243C43.3749 14.0838 44.2739 14.0009 45.126 14.7073C45.556 15.0624 45.9742 15.4294 46.3885 15.8004C46.5762 15.97 46.7208 15.974 46.9123 15.7885C47.7253 15.0032 48.3468 14.3442 49.1677 13.5708ZM21.1459 27.5796C20.4814 28.9134 16.0723 36.8175 15.8886 38.029C17.1824 38.1553 24.695 38.1829 26.4774 37.9974C26.7236 37.3779 21.6579 28.6056 21.1459 27.5796Z" fill="#F2F2F2"/>
<path d="M16.3684 36.7497C15.6882 36.0473 15.6765 35.1989 16.3449 34.1531C16.2902 34.0663 16.2316 33.9716 16.1729 33.8809C15.8172 33.3126 15.4576 32.7444 15.0824 32.1446C14.1795 32.7444 13.2375 32.8746 12.2915 32.3103C11.3456 31.746 10.986 30.866 11.0994 29.7532C10.3528 29.9268 9.71958 29.7611 9.33261 29.0626C8.98864 28.447 9.11763 27.8551 9.57105 27.2987C9.05118 27.1329 8.61341 26.8607 8.28898 26.4345C8.16781 26.2727 8.06618 26.0951 7.98019 25.9136C7.87074 25.6768 7.95283 25.444 8.15217 25.3453C8.36715 25.2427 8.60559 25.3296 8.71894 25.5742C8.90656 25.9767 9.20363 26.2648 9.61014 26.4266C10.1183 26.6278 10.6147 26.5844 11.0798 26.2964C11.4629 26.0596 11.842 25.8228 12.2134 25.5703C12.9951 25.0415 13.214 24.0707 12.7332 23.2894C12.2524 22.512 11.2831 22.2752 10.4779 22.7685C9.5945 23.3091 8.73067 23.8813 7.85902 24.4377C7.15154 24.8876 6.62385 24.7653 6.17435 24.051C6.10008 23.9326 6.02582 23.8182 5.95546 23.6998C5.51377 22.9974 5.56458 22.587 6.18607 22.0108C4.92746 21.4978 4.34115 20.5666 4.46623 19.1894C4.36851 19.2051 4.27079 19.2249 4.17698 19.2407C3.5164 19.3354 2.86364 18.9644 2.62521 18.3567C2.36723 17.6977 2.57439 16.9835 3.14507 16.5967C3.56331 16.3126 3.99327 16.0482 4.41541 15.7759C4.4975 15.7246 4.57958 15.6694 4.69293 15.5984C4.37242 15.0854 4.06363 14.596 3.75874 14.1107C3.68448 13.9923 3.62194 13.8699 3.53594 13.7634C3.38741 13.57 3.39523 13.3767 3.49686 13.1675C3.57503 13.1162 3.6493 13.0689 3.72747 13.0176C3.98154 13.0176 4.1418 13.1478 4.27079 13.3648C4.62648 13.9568 5.00172 14.5329 5.38869 15.1524C5.68575 14.963 5.96718 14.7815 6.24861 14.6C6.4636 14.4619 6.67858 14.3198 6.89747 14.1856C7.51896 13.8068 8.2538 13.9134 8.73849 14.454C9.20363 14.9709 9.23099 15.7286 8.80884 16.3126C8.76976 16.3639 8.73458 16.4152 8.69549 16.4744C9.96583 16.9479 10.56 17.8674 10.4896 19.2446C10.5521 19.2249 10.599 19.2091 10.646 19.1894C11.1463 18.9565 11.6544 19.0907 11.971 19.5524C12.1117 19.7576 12.2407 19.9707 12.3697 20.1798C12.7137 20.7402 12.6511 21.2177 12.1704 21.6596C12.1391 21.6873 12.1117 21.7228 12.0726 21.7662C13.3313 22.2831 13.9019 23.2184 13.7886 24.5837C14.5078 24.4022 15.1215 24.5679 15.5163 25.2072C15.8954 25.8268 15.7899 26.4424 15.3169 27.0225C16.341 27.3894 16.9859 28.0879 17.0993 29.181C17.2126 30.282 16.7123 31.0988 15.782 31.671C16.212 32.3576 16.6342 33.0245 17.0524 33.6914C17.3495 33.652 17.6192 33.6441 17.8654 33.6717M8.33588 20.6455C8.33588 20.6455 8.33588 20.6415 8.33588 20.6455C8.58995 20.4797 8.85966 20.3416 9.09418 20.1483C9.74694 19.6116 9.86029 18.6527 9.37561 17.9542C8.88311 17.2439 7.95283 17.0269 7.21798 17.4649C6.79193 17.7174 6.3776 17.9858 5.97109 18.266C5.2597 18.7553 5.05645 19.7181 5.49423 20.4718C5.91246 21.19 6.83884 21.4821 7.59713 21.1111C7.85511 20.9848 8.08963 20.8033 8.33588 20.6455ZM14.9651 31.2093C15.1879 31.0673 15.4185 30.9331 15.6335 30.7792C16.3175 30.282 16.5013 29.3507 16.0713 28.6128C15.6452 27.8788 14.7306 27.567 13.9801 27.9616C13.4563 28.2379 12.9521 28.5615 12.4792 28.9245C11.8225 29.4296 11.7052 30.4082 12.1586 31.0949C12.6316 31.8091 13.5697 32.0459 14.3124 31.6276C14.5391 31.4974 14.7501 31.3474 14.9651 31.2093ZM8.82057 21.3439C8.11309 21.7978 7.4056 22.2555 6.69421 22.7054C6.48705 22.8356 6.44405 22.9737 6.58868 23.1789C6.70594 23.3407 6.81147 23.5143 6.9131 23.6919C7.02255 23.8853 7.15544 23.9168 7.33915 23.7985C8.75412 22.8869 10.173 21.9793 11.5919 21.0756C11.7639 20.9651 11.799 20.8349 11.6857 20.6573C11.5762 20.4876 11.4629 20.3219 11.3652 20.1443C11.2401 19.9194 11.0955 19.8839 10.8766 20.0299C10.1964 20.4718 9.50851 20.9059 8.82057 21.3439ZM5.4825 16.0877C4.88837 16.4665 4.29424 16.8453 3.70402 17.2281C3.3366 17.4649 3.23497 17.8279 3.43823 18.1436C3.63757 18.4593 4.01281 18.5303 4.37633 18.2975C5.55677 17.5478 6.73721 16.7901 7.91374 16.0324C8.28898 15.7917 8.39061 15.4011 8.18344 15.0893C7.97628 14.7776 7.61668 14.7263 7.24144 14.963C6.65122 15.334 6.06881 15.7128 5.4825 16.0877ZM12.7723 27.7051C12.7723 27.7051 12.7762 27.7051 12.7723 27.7051C13.3508 27.3381 13.9332 26.9712 14.5078 26.5923C14.6211 26.5173 14.7345 26.4305 14.8127 26.324C14.9808 26.0872 14.9417 25.7676 14.7462 25.5624C14.5117 25.3177 14.2146 25.2861 13.8746 25.5032C12.6941 26.253 11.5137 27.0106 10.3372 27.7722C10.2238 27.8432 10.1183 27.9459 10.0479 28.0603C9.90329 28.2931 9.95411 28.6128 10.1417 28.7982C10.3489 29.0074 10.6499 29.0547 10.9196 28.889C11.545 28.4983 12.1586 28.0997 12.7723 27.7051Z" fill="#F2F2F2"/>
<path d="M23.5228 25.227C23.5149 25.2113 23.4954 25.2034 23.4641 25.1757C22.5729 25.4678 21.7443 25.302 21.0055 24.718C20.2824 24.1418 19.9228 23.3724 19.8759 22.4253C19.7821 22.4529 19.7 22.4766 19.6179 22.4963C19.1137 22.6344 18.6134 22.4647 18.3085 22.0386C18.1678 21.8452 18.0544 21.6321 17.9176 21.4348C17.5815 20.9573 17.4955 20.464 17.7964 19.9195C16.3815 19.4341 15.7522 18.4515 15.9085 16.9441C15.76 16.9243 15.5958 16.9204 15.4395 16.8809C14.7711 16.7113 13.9502 15.4445 14.0988 14.7658C14.1613 14.4817 14.3411 14.2252 14.4818 13.9332C13.7313 13.5267 13.1802 12.8677 12.973 11.9561C12.762 11.0446 12.9535 10.2198 13.6297 9.49375C13.5203 9.31617 13.403 9.13071 13.2857 8.94918C12.973 8.45197 12.6643 7.94686 12.3437 7.45754C12.2069 7.24839 12.1561 7.04714 12.2538 6.81432C12.332 6.76302 12.4063 6.71566 12.4845 6.66436C12.7307 6.64463 12.891 6.75513 13.02 6.96822C13.4069 7.60355 13.8134 8.23098 14.2043 8.86631C14.2903 9.00443 14.3685 9.02416 14.5326 8.99654C14.8688 8.94129 15.2206 8.92156 15.5606 8.9334C15.8108 8.94129 15.9593 9.16622 15.9281 9.39115C15.8968 9.62792 15.717 9.78971 15.4551 9.73841C14.3567 9.53321 13.3913 10.571 13.8134 11.9127C14.044 12.6388 14.5248 13.1282 15.2636 13.3255C15.3847 13.357 15.5567 13.3294 15.6662 13.2623C16.0688 13.0256 16.4636 12.773 16.8466 12.5086C16.9482 12.4376 17.0381 12.3074 17.0655 12.189C17.171 11.7312 17.0929 11.2932 16.8857 10.8749C16.8505 10.7999 16.7997 10.7328 16.7684 10.6579C16.6668 10.4171 16.7333 10.2041 16.9482 10.0936C17.1476 9.99097 17.3782 10.0383 17.4798 10.2711C17.6518 10.6736 17.7808 11.0919 17.9176 11.5102C17.945 11.5931 17.9372 11.6918 17.9489 11.7983C18.4766 11.5852 18.9925 11.597 19.3678 12.0351C19.6726 12.3902 19.9111 12.8164 20.1261 13.2426C20.3019 13.5938 20.1886 13.9608 20.0244 14.3041C21.4902 14.754 22.1078 15.9852 21.8928 17.2992C22.5886 17.2321 22.999 17.6228 23.3 18.1911C23.3977 18.3765 23.5423 18.5423 23.6244 18.7356C23.8667 19.3157 23.7182 19.8169 23.253 20.2549C23.812 20.5469 24.2381 20.9573 24.5429 21.4979C25.1136 22.5081 25.0315 23.6999 24.2889 24.5917M19.8212 18.5146C19.8173 18.5067 19.8134 18.5028 19.8094 18.4949C20.001 18.3726 20.1964 18.2542 20.3879 18.124C21.1345 17.6189 21.3417 16.6126 20.8687 15.8549C20.3918 15.0933 19.399 14.8526 18.6329 15.3222C18.2342 15.5669 17.8394 15.8194 17.4525 16.0759C16.7606 16.5376 16.5105 17.4531 16.8662 18.1713C17.2609 18.9684 18.1052 19.3315 18.9143 19.0158C19.2309 18.8895 19.5202 18.6843 19.8212 18.5146ZM21.5606 21.3164C21.3925 21.4269 21.2283 21.5532 21.0485 21.636C20.8179 21.7465 20.7515 21.932 20.7202 22.1648C20.5912 23.1474 21.2674 24.1734 22.2172 24.4299C23.085 24.6667 23.8941 24.1576 24.07 23.2658C24.2576 22.3069 23.6596 21.2651 22.7332 20.9257C22.4869 20.835 22.2641 20.8152 22.0452 21.0007C21.8967 21.123 21.7208 21.2099 21.5606 21.3164ZM17.5775 15.0065C18.1013 14.6711 18.6251 14.3396 19.1489 14.0003C19.4186 13.8266 19.4577 13.6214 19.2935 13.3452C19.1645 13.1321 19.0355 12.923 18.8987 12.7178C18.7424 12.4849 18.543 12.4297 18.3124 12.5757C17.2453 13.2544 16.1821 13.9332 15.1229 14.6198C14.8883 14.7697 14.8492 14.9631 14.9939 15.2117C15.1189 15.4248 15.2518 15.634 15.3887 15.8431C15.5763 16.1312 15.7678 16.1706 16.057 15.9891C16.5613 15.6616 17.0694 15.334 17.5775 15.0065ZM21.1228 20.614C21.6387 20.2825 22.1547 19.955 22.6706 19.6196C22.956 19.4341 22.9951 19.2407 22.8153 18.9448C22.6902 18.7396 22.5651 18.5383 22.4322 18.3371C22.272 18.0924 22.0648 18.0372 21.8224 18.1911C20.7632 18.8619 19.7078 19.5406 18.6564 20.2194C18.4218 20.3693 18.3788 20.5706 18.5156 20.8113C18.6446 21.0323 18.7814 21.2493 18.9261 21.4664C19.1098 21.7426 19.2896 21.7781 19.5749 21.6005C20.0909 21.2769 20.6068 20.9415 21.1228 20.614Z" fill="#F2F2F2"/>
</svg>
