<svg width="1440" height="289" viewBox="0 0 1440 289" fill="none" xmlns="http://www.w3.org/2000/svg">
<path fill-rule="evenodd" clip-rule="evenodd" d="M170.607 0L192.981 22.0484L192.703 22.323L213.018 42.3425L229.592 58.4537L190.855 97.1486L168.328 75.2505L184.883 58.7141L170.328 44.3715L136.299 77.9045L113.924 55.8561L147.953 22.323L147.675 22.0488L170.05 0.000382231L170.328 0.274579L170.607 0Z" fill="#4A5D67" fill-opacity="0.6"/>
<path fill-rule="evenodd" clip-rule="evenodd" d="M58.9872 0L36.6125 22.0484L36.8911 22.323L16.5754 42.3425L0.00192261 58.4537L38.7392 97.1486L61.2655 75.2505L44.711 58.7141L59.2659 44.3715L93.2952 77.9045L115.67 55.8561L81.6406 22.323L81.9189 22.0488L59.5441 0.000382231L59.2659 0.274579L58.9872 0Z" fill="#4A5D67" fill-opacity="0.6"/>
<path fill-rule="evenodd" clip-rule="evenodd" d="M58.9872 288.393L36.6125 266.344L36.8911 266.07L16.5754 246.05L0.00191742 229.939L38.7391 191.244L61.2655 213.142L44.711 229.678L59.2659 244.021L93.2952 210.488L115.67 232.537L81.6406 266.07L81.9189 266.344L59.5441 288.392L59.2659 288.118L58.9872 288.393Z" fill="#4A5D67" fill-opacity="0.6"/>
<path fill-rule="evenodd" clip-rule="evenodd" d="M172.716 288.393L195.091 266.344L194.812 266.07L215.128 246.05L231.701 229.939L192.964 191.244L170.438 213.142L186.992 229.678L172.437 244.021L138.408 210.488L116.033 232.537L150.063 266.07L149.784 266.344L172.159 288.392L172.437 288.118L172.716 288.393Z" fill="#4A5D67" fill-opacity="0.6"/>
<path fill-rule="evenodd" clip-rule="evenodd" d="M204.915 144.915L114.815 56.1289L25.3164 144.323L115.416 233.109L204.915 144.915ZM167.147 144.783L114.815 93.2148L62.4839 144.783L114.815 196.351L167.147 144.783Z" fill="#4A5D67" fill-opacity="0.6"/>
<rect width="60.7314" height="60.7314" transform="matrix(0.712281 0.701894 -0.712281 0.701894 116.023 101.859)" fill="#4A5D67" fill-opacity="0.6"/>
<path fill-rule="evenodd" clip-rule="evenodd" d="M1378.91 0L1401.28 22.0484L1401 22.324L1421.32 42.3424L1437.89 58.4537L1399.16 97.1486L1376.63 75.2505L1393.18 58.7141L1378.63 44.3724L1344.6 77.9045L1322.23 55.8561L1356.25 22.324L1355.98 22.0488L1378.35 0.000382231L1378.63 0.275541L1378.91 0Z" fill="#4A5D67" fill-opacity="0.6"/>
<path fill-rule="evenodd" clip-rule="evenodd" d="M1267.3 0L1244.92 22.0484L1245.2 22.324L1224.89 42.3424L1208.31 58.4537L1247.05 97.1486L1269.58 75.2505L1253.02 58.7141L1267.58 44.3724L1301.61 77.9045L1323.98 55.8561L1289.95 22.324L1290.23 22.0488L1267.86 0.000382231L1267.58 0.275541L1267.3 0Z" fill="#4A5D67" fill-opacity="0.6"/>
<path fill-rule="evenodd" clip-rule="evenodd" d="M1267.3 288.393L1244.92 266.344L1245.2 266.069L1224.89 246.05L1208.31 229.939L1247.05 191.244L1269.58 213.142L1253.02 229.678L1267.58 244.02L1301.61 210.488L1323.98 232.537L1289.95 266.069L1290.23 266.344L1267.86 288.392L1267.58 288.117L1267.3 288.393Z" fill="#4A5D67" fill-opacity="0.6"/>
<path fill-rule="evenodd" clip-rule="evenodd" d="M1381.02 288.393L1403.39 266.344L1403.11 266.069L1423.43 246.05L1440 229.939L1401.26 191.244L1378.74 213.142L1395.29 229.678L1380.74 244.02L1346.71 210.488L1324.34 232.537L1358.36 266.069L1358.09 266.344L1380.46 288.392L1380.74 288.117L1381.02 288.393Z" fill="#4A5D67" fill-opacity="0.6"/>
<path fill-rule="evenodd" clip-rule="evenodd" d="M1413.23 144.915L1323.13 56.1289L1233.63 144.323L1323.73 233.109L1413.23 144.915ZM1375.46 144.783L1323.13 93.2148L1270.8 144.783L1323.13 196.351L1375.46 144.783Z" fill="#4A5D67" fill-opacity="0.6"/>
<rect width="60.7314" height="60.7314" transform="matrix(0.712281 0.701894 -0.712281 0.701894 1324.34 101.859)" fill="#4A5D67" fill-opacity="0.6"/>
<path fill-rule="evenodd" clip-rule="evenodd" d="M471.595 0L493.97 22.0484L493.691 22.323L514.007 42.3425L530.58 58.4537L491.843 97.1486L469.317 75.2505L485.871 58.7141L471.316 44.3715L437.287 77.9045L414.912 55.8561L448.941 22.323L448.663 22.0488L471.038 0.000382231L471.316 0.274579L471.595 0Z" fill="#4A5D67" fill-opacity="0.6"/>
<path fill-rule="evenodd" clip-rule="evenodd" d="M359.976 0L337.601 22.0484L337.879 22.323L317.706 42.2019L300.988 58.4537L339.725 97.1486L362.252 75.2505L345.698 58.7151L360.254 44.3715L394.283 77.9045L416.658 55.8561L382.629 22.323L382.907 22.0488L360.532 0.000382231L360.254 0.274579L359.976 0Z" fill="#4A5D67" fill-opacity="0.6"/>
<path fill-rule="evenodd" clip-rule="evenodd" d="M359.976 288.393L337.601 266.344L337.879 266.07L317.706 246.191L300.988 229.939L339.725 191.244L362.252 213.142L345.698 229.677L360.254 244.021L394.283 210.488L416.658 232.537L382.629 266.07L382.907 266.344L360.532 288.392L360.254 288.118L359.976 288.393Z" fill="#4A5D67" fill-opacity="0.6"/>
<path fill-rule="evenodd" clip-rule="evenodd" d="M473.704 288.393L496.079 266.344L495.8 266.07L516.116 246.05L532.689 229.939L493.952 191.244L471.426 213.142L487.98 229.678L473.426 244.021L439.396 210.488L417.021 232.537L451.051 266.07L450.773 266.344L473.147 288.392L473.426 288.118L473.704 288.393Z" fill="#4A5D67" fill-opacity="0.6"/>
<path fill-rule="evenodd" clip-rule="evenodd" d="M505.902 144.915L415.802 56.1289L326.303 144.323L416.403 233.109L505.902 144.915ZM468.133 144.783L415.802 93.2148L363.47 144.783L415.802 196.351L468.133 144.783Z" fill="#4A5D67" fill-opacity="0.6"/>
<rect width="60.7314" height="60.7314" transform="matrix(0.712281 0.701894 -0.712281 0.701894 417.012 101.859)" fill="#4A5D67" fill-opacity="0.6"/>
<path fill-rule="evenodd" clip-rule="evenodd" d="M774.026 0L796.401 22.0484L796.122 22.324L816.436 42.3424L833.01 58.4537L794.273 97.1486L771.746 75.2505L788.301 58.7141L773.747 44.3724L739.718 77.9045L717.344 55.8561L751.372 22.324L751.093 22.0488L773.468 0.000382231L773.747 0.275541L774.026 0Z" fill="#4A5D67" fill-opacity="0.6"/>
<path fill-rule="evenodd" clip-rule="evenodd" d="M662.415 0L640.04 22.0484L640.32 22.324L620.005 42.3424L603.432 58.4537L642.169 97.1486L664.695 75.2505L648.141 58.7141L662.695 44.3724L696.723 77.9045L719.098 55.8561L685.069 22.324L685.349 22.0488L662.974 0.000382231L662.695 0.275541L662.415 0Z" fill="#4A5D67" fill-opacity="0.6"/>
<path fill-rule="evenodd" clip-rule="evenodd" d="M662.415 288.393L640.04 266.344L640.32 266.069L620.005 246.05L603.432 229.939L642.169 191.244L664.695 213.142L648.141 229.678L662.695 244.02L696.723 210.488L719.098 232.537L685.069 266.069L685.349 266.344L662.974 288.392L662.695 288.117L662.415 288.393Z" fill="#4A5D67" fill-opacity="0.6"/>
<path fill-rule="evenodd" clip-rule="evenodd" d="M776.136 288.393L798.511 266.344L798.233 266.071L818.55 246.05L835.123 229.939L796.386 191.244L773.86 213.142L790.414 229.678L775.858 244.022L741.828 210.488L719.453 232.537L753.483 266.071L753.206 266.344L775.581 288.392L775.858 288.119L776.136 288.393Z" fill="#4A5D67" fill-opacity="0.6"/>
<path fill-rule="evenodd" clip-rule="evenodd" d="M808.341 144.915L718.241 56.1289L628.742 144.323L718.842 233.109L808.341 144.915ZM770.573 144.783L718.241 93.2148L665.91 144.783L718.241 196.351L770.573 144.783Z" fill="#4A5D67" fill-opacity="0.6"/>
<rect width="60.7314" height="60.7314" transform="matrix(0.712281 0.701894 -0.712281 0.701894 719.453 101.859)" fill="#4A5D67" fill-opacity="0.6"/>
<path fill-rule="evenodd" clip-rule="evenodd" d="M1076.47 0L1098.84 22.0484L1098.56 22.324L1118.88 42.3424L1135.45 58.4537L1096.71 97.1486L1074.19 75.2505L1090.74 58.7141L1076.19 44.3724L1042.16 77.9045L1019.79 55.8561L1053.81 22.324L1053.53 22.0488L1075.91 0.000382231L1076.19 0.275541L1076.47 0Z" fill="#4A5D67" fill-opacity="0.6"/>
<path fill-rule="evenodd" clip-rule="evenodd" d="M964.856 0L942.482 22.0484L942.759 22.3221L922.443 42.3424L905.869 58.4537L944.606 97.1486L967.133 75.2505L950.578 58.7141L965.134 44.3705L999.164 77.9045L1021.54 55.8561L987.509 22.3221L987.786 22.0488L965.411 0.000382231L965.134 0.273616L964.856 0Z" fill="#4A5D67" fill-opacity="0.6"/>
<path fill-rule="evenodd" clip-rule="evenodd" d="M964.856 288.393L942.482 266.344L942.761 266.069L922.732 246.331L905.869 229.939L944.606 191.244L967.133 213.142L950.58 229.677L965.136 244.02L999.164 210.488L1021.54 232.537L987.511 266.069L987.79 266.344L965.415 288.392L965.136 288.117L964.856 288.393Z" fill="#4A5D67" fill-opacity="0.6"/>
<path fill-rule="evenodd" clip-rule="evenodd" d="M1078.58 288.393L1100.95 266.344L1100.67 266.069L1120.99 246.05L1137.56 229.939L1098.82 191.244L1076.3 213.142L1092.85 229.678L1078.3 244.02L1044.27 210.488L1021.89 232.537L1055.92 266.069L1055.64 266.344L1078.02 288.392L1078.3 288.117L1078.58 288.393Z" fill="#4A5D67" fill-opacity="0.6"/>
<path fill-rule="evenodd" clip-rule="evenodd" d="M1110.79 144.915L1020.69 56.1289L931.188 144.323L1021.29 233.109L1110.79 144.915ZM1073.02 144.783L1020.69 93.2148L968.355 144.783L1020.69 196.351L1073.02 144.783Z" fill="#4A5D67" fill-opacity="0.6"/>
<rect width="60.7314" height="60.7314" transform="matrix(0.712281 0.701894 -0.712281 0.701894 1021.89 101.858)" fill="#4A5D67" fill-opacity="0.6"/>
</svg>
