<svg width="82" height="21" viewBox="0 0 82 21" fill="none" xmlns="http://www.w3.org/2000/svg">
<path fill-rule="evenodd" clip-rule="evenodd" d="M63.9683 0.367765C63.9388 0.388404 63.9476 0.406094 63.9476 0.470959L63.9417 0.792337C63.9358 0.913222 63.8297 0.792337 63.8179 0.783492L63.6263 0.615432C63.5201 0.518134 63.4847 0.518134 63.5113 0.6744C63.5201 0.733368 63.5732 1.01642 63.5584 1.03706C63.526 1.07538 63.3904 0.966293 63.3314 0.930912C63.296 0.907325 63.2665 0.889635 63.2253 0.863099C63.1987 0.845408 63.1427 0.795285 63.1132 0.824769C63.0808 0.857202 63.2636 1.3319 63.2754 1.34664L63.6233 1.71519C63.6793 1.77416 63.7412 1.83903 63.7973 1.90094C63.8562 1.96581 63.9122 2.01888 63.9712 2.08669C64.0184 2.13682 64.2867 2.43755 64.3221 2.45524C64.3398 2.45819 64.4371 2.37564 64.5255 2.33731C64.6317 2.29013 64.7673 2.28129 64.7791 2.26655C64.7997 2.24001 64.729 1.15204 64.7231 0.966293C64.7201 0.901428 64.7201 0.818873 64.7113 0.754007C64.7054 0.703884 64.5933 0.500443 64.5609 0.441475C64.5314 0.385455 64.4695 0.214447 64.4194 0.282261C64.4076 0.297003 64.3486 0.603638 64.3398 0.653761C64.3339 0.689142 64.3339 0.727472 64.2926 0.724523C64.2602 0.721575 64.1186 0.515186 64.0892 0.473908C64.0715 0.45032 64.0567 0.429681 64.039 0.406094C64.0154 0.379558 64.0036 0.347126 63.9683 0.367765Z" fill="#455CC5"/>
<path fill-rule="evenodd" clip-rule="evenodd" d="M1.93711 18.6628L1.93416 13.0313H8.31159C10.1956 13.105 11.8526 13.9807 11.9087 15.853C12.0089 19.2112 7.71011 18.6716 5.17742 18.6716C4.11304 18.6687 2.99264 18.7011 1.93711 18.6628ZM1.9489 11.3183L1.93416 5.72809C3.87422 5.68681 5.97644 5.67797 7.88702 5.72809C9.67081 5.77527 11.0743 6.65684 11.0418 8.5173C11.0094 10.3099 9.63543 11.2151 7.87817 11.3124L1.9489 11.3183ZM0 20.4377C2.11402 20.4377 4.23098 20.4377 6.34499 20.4377C8.45606 20.4377 10.175 20.5262 11.8349 19.5886C14.4915 18.0908 14.577 14.1458 11.8408 12.5271C11.4723 12.309 11.1096 12.2176 10.7706 12.023C11.1214 11.6986 12.8875 11.2298 12.973 8.46422C13.0291 6.62441 12.0177 5.32711 10.9003 4.70204C9.38481 3.8529 7.78972 3.95609 5.8644 3.95609C3.9155 3.95609 1.96365 3.96199 0.0147421 3.95609L0 20.4377Z" fill="#455CC5"/>
<path fill-rule="evenodd" clip-rule="evenodd" d="M26.4496 13.2083H17.7813C17.9169 12.0083 18.5803 11.1267 19.167 10.5606C20.6501 9.13949 23.5336 9.1277 25.0373 10.5311C25.63 11.0854 26.3229 12.0083 26.4496 13.2083ZM28.0831 16.8408H25.9926C25.8482 17.0324 25.7597 17.2123 25.6447 17.3626C25.4943 17.5602 25.3912 17.6958 25.226 17.8462C24.1469 18.8427 22.5518 19.1523 21.0806 18.8015C19.972 18.5361 19.4295 18.0555 18.8486 17.4717C18.483 17.1032 17.7017 15.7498 17.7724 14.9685L28.4811 14.9656C28.4752 12.9518 28.2039 11.4157 27.1808 10.1449C26.3376 9.09527 25.1995 8.18715 23.3361 7.88052C14.8771 6.49476 13.1434 18.0585 19.9661 20.2875C22.2835 21.0452 25.3115 20.6177 26.9037 18.7808C27.343 18.2707 27.8383 17.6604 28.0831 16.8408Z" fill="#455CC5"/>
<path fill-rule="evenodd" clip-rule="evenodd" d="M74.1839 9.53123C76.9878 9.11845 78.922 11.1352 79.1667 13.6295C79.4468 16.4718 77.8193 18.6477 75.3072 18.9101C72.4502 19.205 70.5131 17.2944 70.2654 14.7411C70.1268 13.2905 70.5308 12.1022 71.2178 11.1646C71.8192 10.3361 72.7716 9.73761 74.1839 9.53123ZM79.0723 9.93221C78.8777 9.74351 78.7067 9.4811 78.521 9.2983C76.8758 7.66783 74.1131 7.39657 72.0315 8.25751C69.9558 9.1155 68.3106 11.2148 68.3047 14.2045C68.2929 18.863 72.2556 21.4369 76.1947 20.4463C77.6984 20.0689 78.2114 19.4291 79.093 18.5239L79.0959 20.4256C79.4291 20.461 80.7588 20.4875 81.0301 20.405V7.9892L79.0989 7.99805L79.0723 9.93221Z" fill="#455CC5"/>
<path fill-rule="evenodd" clip-rule="evenodd" d="M41.1594 9.53098C43.987 9.14179 45.9005 11.1143 46.1423 13.6293C46.4165 16.4833 44.7948 18.6445 42.2828 18.9099C39.4258 19.2106 37.4857 17.2883 37.241 14.7526C37.0995 13.2755 37.5152 12.102 38.1933 11.1644C38.7801 10.3418 39.756 9.72557 41.1594 9.53098ZM46.0479 9.93491C45.8474 9.72557 45.6882 9.49265 45.4936 9.301C44.8715 8.68773 44.0548 8.21304 43.1467 7.98306C39.2164 6.99534 35.2832 9.56931 35.2774 14.2042C35.2715 18.845 39.2046 21.4367 43.1673 20.446C43.8071 20.2868 44.3821 20.0126 44.8509 19.6853C45.5467 19.1988 45.8976 18.6593 46.0656 18.5207L46.0686 20.4372H47.9998V7.98306L46.0686 7.9919L46.0479 9.93491Z" fill="#455CC5"/>
<path fill-rule="evenodd" clip-rule="evenodd" d="M54.7975 20.4346C57.4569 20.4405 56.9763 20.6675 57.3567 19.7181L62.0565 7.9834H60.0221C59.8481 8.03352 59.0874 10.2271 58.9636 10.5426C58.6245 11.4154 58.309 12.2881 57.9641 13.152C57.6162 14.0188 57.2918 14.8827 56.9587 15.7613C56.7935 16.1947 56.0977 18.1348 55.9326 18.35L51.8933 7.99224L49.7852 7.98635L54.7975 20.4346Z" fill="#455CC5"/>
<path fill-rule="evenodd" clip-rule="evenodd" d="M30.8203 20.4379L32.7515 20.435L32.7427 3.00098L30.8203 3.00393V20.4379Z" fill="#455CC5"/>
<path fill-rule="evenodd" clip-rule="evenodd" d="M63.8477 20.4375L65.7818 20.4346V7.98342L65.5489 7.98047H64.0629L63.8477 7.98637V20.4375Z" fill="#455CC5"/>
</svg>
